<svg width="54" height="7" viewBox="0 0 54 7" fill="none" xmlns="http://www.w3.org/2000/svg">
<g id="Logo" clip-path="url(#clip0_203_83)">
<path id="Vector" d="M26.0395 6.79582C25.5911 6.79582 25.1974 6.80424 24.7932 6.7874C24.7248 6.7874 24.6427 6.68213 24.5974 6.61266C24.1925 5.94599 23.7922 5.27687 23.3964 4.60529C23.3706 4.54623 23.3268 4.49687 23.2711 4.46433C23.2155 4.43179 23.151 4.41775 23.0869 4.42424C22.7553 4.43582 22.4237 4.42424 22.0585 4.42424V6.77687H20.8848V0.925293C20.9195 0.917636 20.9547 0.912361 20.9901 0.909504C22.0858 0.909504 23.1827 0.883187 24.2774 0.916872C25.6574 0.958977 26.4395 2.37898 25.7658 3.57266C25.5132 4.02003 25.1122 4.2674 24.589 4.39582C25.0711 5.19161 25.5427 5.97161 26.0395 6.79582ZM22.0743 2.05898V3.29477C22.829 3.29477 23.5627 3.30845 24.2953 3.28845C24.6216 3.27898 24.829 3.0074 24.828 2.68529C24.8269 2.36319 24.6174 2.07477 24.308 2.06635C23.5669 2.04319 22.8259 2.05898 22.0743 2.05898Z" fill="#262626"/>
<path id="Vector_2" d="M41.4595 0.907386C41.8132 0.907386 42.1469 0.895808 42.4785 0.915808C42.5832 0.937379 42.6758 0.997967 42.7374 1.08528C43.6062 2.26283 44.4704 3.44388 45.3301 4.62844C45.3785 4.69581 45.4353 4.75897 45.5332 4.88633V0.922123H46.6985V6.79581C46.3311 6.79581 45.9616 6.80739 45.6006 6.78633C45.5227 6.78633 45.4395 6.66844 45.3806 6.58949C44.5244 5.42318 43.6708 4.25581 42.8195 3.08739C42.7701 3.01897 42.7143 2.9537 42.609 2.82107V6.78318H41.4511L41.4595 0.907386Z" fill="#262626"/>
<path id="Vector_3" d="M13.8469 0.914764H18.4943V2.05897H15.0301V3.27371H18.1101V4.41687H15.0269V5.63161H18.4922V6.78213H13.8469V0.914764Z" fill="#262626"/>
<path id="Vector_4" d="M53.428 3.26844V4.41265H50.3385V5.63054H53.7953V6.78107H49.148V0.928436H53.8017V2.05896H50.328V3.26738L53.428 3.26844Z" fill="#262626"/>
<path id="Vector_5" d="M0.0121765 6.77265V0.922119H4.66902V2.05896H1.19533V3.26422H4.29954V4.42212H1.19113V5.62738H4.67323V6.77265H0.0121765Z" fill="#262626"/>
<path id="Vector_6" d="M33.8111 6.79581C34.0417 6.22213 34.2606 5.68002 34.4774 5.13792C35.0122 3.80634 35.5501 2.47686 36.0764 1.13792C36.149 0.952652 36.2417 0.883179 36.4406 0.900021C36.6753 0.920021 36.9143 0.890547 37.149 0.9116C37.199 0.917368 37.2472 0.934139 37.2899 0.960711C37.3327 0.987283 37.3691 1.02299 37.3964 1.06528C38.1578 2.93897 38.9136 4.81406 39.6638 6.69055C39.6737 6.72492 39.6804 6.76017 39.6838 6.79581C39.3101 6.79581 38.9469 6.80318 38.5827 6.78949C38.5445 6.78057 38.5087 6.76316 38.4781 6.73857C38.4475 6.71397 38.4228 6.68281 38.4059 6.64739C38.2806 6.35897 38.1659 6.06423 38.0585 5.76844C38.0456 5.70964 38.011 5.65785 37.9617 5.62334C37.9123 5.58883 37.8518 5.57412 37.7922 5.58213C37.0995 5.59055 36.4073 5.59055 35.7153 5.58213C35.6554 5.57469 35.5949 5.58989 35.5457 5.62475C35.4964 5.6596 35.4619 5.7116 35.449 5.77055C35.3438 6.04844 35.2174 6.31897 35.1216 6.60002C35.0659 6.76318 34.9785 6.81055 34.8143 6.80002C34.4932 6.78528 34.1711 6.79581 33.8111 6.79581ZM37.5353 4.47265C37.2743 3.80212 37.029 3.16844 36.7827 2.53476L36.7185 2.54423C36.469 3.17581 36.2185 3.8137 35.9585 4.47265H37.5353Z" fill="#262626"/>
<path id="Vector_7" d="M6.29639 0.908459C6.70902 0.908459 7.07639 0.897931 7.44165 0.916879C7.51112 0.916879 7.60586 1.02214 7.63744 1.10214C8.13533 2.33688 8.62481 3.57477 9.11112 4.81162C9.15323 4.91688 9.19849 5.01688 9.27007 5.1853C9.33849 5.02319 9.38481 4.91688 9.42797 4.80846C9.91533 3.57898 10.4048 2.35162 10.8827 1.11899C10.8991 1.04925 10.9417 0.988484 11.0016 0.94929C11.0616 0.910096 11.1344 0.895476 11.2048 0.908459C11.528 0.924249 11.8511 0.908459 12.2069 0.908459C12.1343 1.09477 12.0732 1.25583 12.009 1.41583C11.3143 3.13793 10.6209 4.85969 9.92902 6.58109C9.86376 6.7453 9.78797 6.81056 9.61323 6.80004C9.29744 6.78319 8.98165 6.80004 8.66586 6.80004C7.87534 4.83583 7.09218 2.88846 6.29639 0.908459Z" fill="#262626"/>
<path id="Vector_8" d="M28.2701 0.921082H29.4217V5.63161H32.5206V6.77687H28.2701V0.921082Z" fill="#262626"/>
</g>
<defs>
<clipPath id="clip0_203_83">
<rect width="53.7842" height="5.9" fill="white" transform="translate(0.0142822 0.900024)"/>
</clipPath>
</defs>
</svg>
